<?xml version="1.0" encoding="UTF-8"?>
<svg xmlns="http://www.w3.org/2000/svg" id="LetLej_Emblem" data-name="LetLej Emblem" width="115.248" height="49.591" viewBox="0 0 115.248 49.591">
  <path id="Path" d="M107.331,49.591H7.917A7.907,7.907,0,0,1,0,41.695V7.9A7.907,7.907,0,0,1,7.917,0h99.414a7.907,7.907,0,0,1,7.917,7.9v33.8A7.907,7.907,0,0,1,107.331,49.591Z" fill="#f5ab1d"></path>
  <g id="Group" transform="translate(63.488 7.646)" opacity="0.1">
    <path id="Path-2" data-name="Path" d="M2.1,0A2.039,2.039,0,0,0,0,2.066,2,2,0,0,0,2.043,4.1a2.1,2.1,0,0,0,1.53-.609,1.943,1.943,0,0,0,.541-1.428A1.973,1.973,0,0,0,2.1,0Z" transform="translate(0.334 0.457)"></path>
  </g>
  <g id="Group-2" data-name="Group" transform="translate(41.43 7.487)">
    <rect id="Rectangle" width="2.596" height="20.885" transform="translate(0.042 0.035)" fill="#fff"></rect>
    <path id="Shape" d="M7.02,14.855a6.928,6.928,0,0,1-5.158-1.979A7.325,7.325,0,0,1,0,7.678,8.479,8.479,0,0,1,1.788,2.228,6.181,6.181,0,0,1,6.7,0a5.278,5.278,0,0,1,4.7,2.372,8.2,8.2,0,0,1,1.2,4.335,8.791,8.791,0,0,1-.073,1.073c-.006.05-.011.093-.015.133H2.478a4.951,4.951,0,0,0,1.5,3.784,5,5,0,0,0,3.4,1.158,9.339,9.339,0,0,0,3.953-.735l.442,1.853A11.538,11.538,0,0,1,7.02,14.855Zm-.531-13a3.555,3.555,0,0,0-2.9,1.43A5.7,5.7,0,0,0,2.507,6.06h7.58A4.6,4.6,0,0,0,8.966,2.8,3.329,3.329,0,0,0,6.489,1.853Z" transform="translate(6.501 6.359)" fill="#fff"></path>
    <path id="Path-3" data-name="Path" d="M1.652,0A1.587,1.587,0,0,0,0,1.618,1.548,1.548,0,0,0,1.593,3.206,1.522,1.522,0,0,0,3.215,1.618,1.532,1.532,0,0,0,1.652,0Z" transform="translate(22.841 1.064)" fill="#fff"></path>
    <path id="Path-4" data-name="Path" d="M3.8,11.914c0,3.412-.266,4.53-.973,5.354A4.207,4.207,0,0,1,0,18.356l.266,2.03A6.6,6.6,0,0,0,4.69,18.767C5.958,17.473,6.4,15.679,6.4,12.914V0H3.8V11.914Z" transform="translate(19.361 6.683)" fill="#fff"></path>
    <path id="Path-5" data-name="Path" d="M1.77,0A1.741,1.741,0,0,0,0,1.853,1.735,1.735,0,0,0,1.74,3.706,1.724,1.724,0,0,0,3.51,1.853,1.719,1.719,0,0,0,1.77,0Z" transform="translate(29.596 17.537)" fill="#fff"></path>
    <path id="Shape-2" data-name="Shape" d="M6.106,21.209a5.665,5.665,0,0,1-4.347-2A7.979,7.979,0,0,1,0,13.973,8.13,8.13,0,0,1,2.136,8.1,5.974,5.974,0,0,1,6.4,6.324a5.556,5.556,0,0,1,2.728.658A4.042,4.042,0,0,1,10.707,8.5h.059V0h2.6V17.209c0,.893.015,2.558.118,3.677H11.15l-.118-2.471h-.059a4.915,4.915,0,0,1-1.858,1.993A5.8,5.8,0,0,1,6.106,21.209ZM6.9,8.355a3.791,3.791,0,0,0-3.145,1.57,6.511,6.511,0,0,0-1.132,3.93,6.3,6.3,0,0,0,1.058,3.714,3.769,3.769,0,0,0,3.16,1.552,3.907,3.907,0,0,0,3.8-3.089,4.443,4.443,0,0,0,.119-1.118v-2.47a4.7,4.7,0,0,0-.119-1.089A3.955,3.955,0,0,0,9.361,9.237,3.762,3.762,0,0,0,6.9,8.355Z" transform="translate(35.819 0.035)" fill="#fff"></path>
    <path id="Path-6" data-name="Path" d="M5.693,12.5l5.516-5.854H8.082L3.893,11.561c-.413.5-.914,1.118-1.268,1.618H2.566V0H0V20.885H2.566V15.532l1.327-1.471,4.926,6.824h3.156Z" transform="translate(54.018 0.035)" fill="#fff"></path>
  </g>
  <path id="Path-7" data-name="Path" d="M0,0H2.6V20.885H0V0Z" transform="translate(8.379 7.522)" fill="#09195d"></path>
  <path id="Shape-3" data-name="Shape" d="M7.02,14.855a6.928,6.928,0,0,1-5.158-1.979A7.325,7.325,0,0,1,0,7.678,8.479,8.479,0,0,1,1.788,2.228,6.181,6.181,0,0,1,6.7,0a5.279,5.279,0,0,1,4.7,2.372,8.2,8.2,0,0,1,1.2,4.335,8.791,8.791,0,0,1-.073,1.073c-.006.05-.011.093-.015.133H2.478a4.951,4.951,0,0,0,1.5,3.784,5,5,0,0,0,3.4,1.158,9.339,9.339,0,0,0,3.953-.735l.442,1.853A11.538,11.538,0,0,1,7.02,14.855Zm-.531-13a3.555,3.555,0,0,0-2.9,1.43A5.7,5.7,0,0,0,2.507,6.06h7.58A4.6,4.6,0,0,0,8.966,2.8,3.329,3.329,0,0,0,6.489,1.853Z" transform="translate(14.838 13.846)" fill="#09195d"></path>
  <path id="Path-8" data-name="Path" d="M4.749,0V3.371H8.465V5.342H4.749V13.02c0,1.765.5,2.765,1.947,2.765a5.788,5.788,0,0,0,1.5-.177l.118,1.941a6.367,6.367,0,0,1-2.3.353,3.6,3.6,0,0,1-2.8-1.088c-.737-.765-1-2.03-1-3.706V5.342H0V3.371H2.212V.677Z" transform="translate(29.556 10.799)" fill="#09195d"></path>
  <g id="Group-3" data-name="Group" transform="translate(7.994 37.783)">
    <path id="Shape-4" data-name="Shape" d="M1.015,4.183A8.319,8.319,0,0,1,0,4.128V.085A7.64,7.64,0,0,1,1.2,0,2.505,2.505,0,0,1,2.88.476a1.842,1.842,0,0,1,.642,1.512A2.125,2.125,0,0,1,2.88,3.622,2.743,2.743,0,0,1,1.015,4.183Zm.25-3.6A2.444,2.444,0,0,0,.752.628V3.568a2.847,2.847,0,0,0,.416.018h.017a1.543,1.543,0,0,0,1.134-.4,1.6,1.6,0,0,0,.408-1.176A1.408,1.408,0,0,0,2.363.969,1.485,1.485,0,0,0,1.265.585Z" transform="translate(0.056 0.336)" fill="#fff"></path>
    <path id="Path-9" data-name="Path" d="M.752,0V4.11H0V0Z" transform="translate(5.156 0.366)" fill="#fff"></path>
    <path id="Path-10" data-name="Path" d="M0,4.11V0H.856L1.92,1.762a11.3,11.3,0,0,1,.7,1.378h.012c-.049-.549-.067-1.079-.067-1.707V0h.7V4.11H2.488l-1.076-1.8A14.3,14.3,0,0,1,.673.884L.654.891c.031.53.037,1.073.037,1.75V4.11Z" transform="translate(7.694 0.366)" fill="#fff"></path>
    <path id="Path-11" data-name="Path" d="M0,0H.752V3.482H2.446V4.11H0Z" transform="translate(14.94 0.366)" fill="#fff"></path>
    <path id="Path-12" data-name="Path" d="M2.305,2.287H.752V3.494H2.488V4.11H0V0H2.4V.616H.752V1.677H2.305Z" transform="translate(18.878 0.366)" fill="#fff"></path>
    <path id="Path-13" data-name="Path" d="M1.333,4.11,0,0H.819l.562,1.866c.159.518.293,1,.4,1.5H1.8c.11-.488.257-.988.422-1.488L2.819,0h.8L2.195,4.11Z" transform="translate(22.608 0.366)" fill="#fff"></path>
    <path id="Path-14" data-name="Path" d="M2.305,2.287H.752V3.494H2.488V4.11H0V0H2.4V.616H.752V1.677H2.305Z" transform="translate(27.598 0.366)" fill="#fff"></path>
    <path id="Shape-5" data-name="Shape" d="M.746,4.141H0V.085A7.162,7.162,0,0,1,1.138,0,1.9,1.9,0,0,1,2.409.329a1.046,1.046,0,0,1,.355.823,1.1,1.1,0,0,1-.746,1.031V2.2a1.033,1.033,0,0,1,.574.793l.057.23a5.92,5.92,0,0,0,.266.915H2.14a5.8,5.8,0,0,1-.275-.969c-.114-.526-.3-.707-.74-.719H.746V4.14ZM1.21.567A1.994,1.994,0,0,0,.746.6V1.9h.446c.5,0,.825-.266.825-.677S1.731.567,1.21.567Z" transform="translate(31.67 0.336)" fill="#fff"></path>
    <path id="Shape-6" data-name="Shape" d="M.776,4.111H0L1.321,0h.959L3.619,4.109H2.813L2.44,2.945H1.131L.777,4.11ZM1.767.6c-.021.082-.042.17-.064.26-.041.173-.084.35-.132.509L1.254,2.379H2.311L1.987,1.366c-.064-.2-.121-.428-.172-.627l0-.006L1.779.6Z" transform="translate(35.81 0.366)" fill="#fff"></path>
    <path id="Path-15" data-name="Path" d="M0,4.11V0H.856L1.92,1.762a11.3,11.3,0,0,1,.7,1.378h.012c-.049-.549-.067-1.079-.067-1.707V0h.7V4.11H2.488l-1.076-1.8A14.3,14.3,0,0,1,.673.884L.654.891c.031.53.037,1.073.037,1.75V4.11Z" transform="translate(40.928 0.366)" fill="#fff"></path>
    <path id="Shape-7" data-name="Shape" d="M1.015,4.183A8.319,8.319,0,0,1,0,4.128V.085A7.64,7.64,0,0,1,1.2,0,2.505,2.505,0,0,1,2.88.476a1.842,1.842,0,0,1,.642,1.512A2.125,2.125,0,0,1,2.88,3.622,2.743,2.743,0,0,1,1.015,4.183Zm.25-3.6A2.444,2.444,0,0,0,.752.628V3.568a2.847,2.847,0,0,0,.416.018h.017a1.543,1.543,0,0,0,1.134-.4,1.6,1.6,0,0,0,.408-1.176A1.408,1.408,0,0,0,2.363.969,1.485,1.485,0,0,0,1.265.585Z" transform="translate(45.985 0.336)" fill="#fff"></path>
    <path id="Shape-8" data-name="Shape" d="M.6,4.75h0L.2,4.421.556,3.9A2.174,2.174,0,0,1,0,2.366,1.957,1.957,0,0,1,1.944.232a1.784,1.784,0,0,1,.967.262L3.259,0l.434.292L3.332.811A2.185,2.185,0,0,1,3.87,2.323,1.942,1.942,0,0,1,1.938,4.476a1.78,1.78,0,0,1-.953-.262l-.379.536ZM2.892,1.476l-1.552,2.2a.88.88,0,0,0,.593.207c.706,0,1.18-.62,1.18-1.543A1.791,1.791,0,0,0,2.9,1.476ZM1.938.823c-.815,0-1.18.768-1.18,1.53a1.9,1.9,0,0,0,.22.909L.99,3.256,2.555,1.037A.966.966,0,0,0,1.938.823Z" transform="translate(50.871 0.068)" fill="#fff"></path>
    <path id="Shape-9" data-name="Shape" d="M.746,4.141H0V.085A7.174,7.174,0,0,1,1.137,0,1.9,1.9,0,0,1,2.409.329a1.046,1.046,0,0,1,.355.823,1.1,1.1,0,0,1-.746,1.031V2.2a1.033,1.033,0,0,1,.574.793l.054.217,0,.01a5.84,5.84,0,0,0,.268.918H2.14a5.8,5.8,0,0,1-.275-.969c-.114-.526-.3-.707-.74-.719H.746V4.14ZM1.21.567A1.994,1.994,0,0,0,.746.6V1.9h.446c.5,0,.825-.266.825-.677S1.731.567,1.21.567Z" transform="translate(56.313 0.336)" fill="#fff"></path>
    <path id="Path-16" data-name="Path" d="M1.174.628H0V0H3.112V.628H1.926V4.11H1.174Z" transform="translate(62.275 0.366)" fill="#fff"></path>
    <path id="Path-17" data-name="Path" d="M.752,0V4.11H0V0Z" transform="translate(66.794 0.366)" fill="#fff"></path>
    <path id="Path-18" data-name="Path" d="M0,0H.752V3.482H2.446V4.11H0Z" transform="translate(69.332 0.366)" fill="#fff"></path>
    <path id="Path-19" data-name="Path" d="M0,0H2.378V.616H.752V1.75H2.269v.616H.752V4.11H0V0Z" transform="translate(75.459 0.366)" fill="#fff"></path>
    <path id="Path-20" data-name="Path" d="M2.305,2.287H.752V3.494H2.488V4.11H0V0H2.4V.616H.752V1.677H2.305v.61Z" transform="translate(79.495 0.366)" fill="#fff"></path>
    <path id="Path-21" data-name="Path" d="M.165,3.36a2.087,2.087,0,0,0,1,.262c.483,0,.752-.226.752-.561,0-.311-.208-.494-.734-.683C.5,2.134.067,1.774.067,1.183.067.512.629,0,1.522,0a2.18,2.18,0,0,1,.991.207l-.184.6a1.743,1.743,0,0,0-.819-.2c-.477,0-.685.256-.685.494,0,.317.238.463.789.677.715.268,1.064.628,1.064,1.219,0,.659-.5,1.232-1.565,1.232A2.453,2.453,0,0,1,0,3.982Z" transform="translate(83.384 0.299)" fill="#fff"></path>
    <path id="Path-22" data-name="Path" d="M1.174.628H0V0H3.112V.628H1.926V4.11H1.174V.628Z" transform="translate(87.279 0.366)" fill="#fff"></path>
    <path id="Path-23" data-name="Path" d="M2.305,2.287H.752V3.494H2.488V4.11H0V0H2.4V.616H.752V1.677H2.305v.61Z" transform="translate(91.798 0.366)" fill="#fff"></path>
    <path id="Path-24" data-name="Path" d="M0,4.11V0H.856L1.92,1.762a11.23,11.23,0,0,1,.7,1.378h.012c-.049-.549-.067-1.079-.067-1.707V0h.7V4.11H2.488l-1.076-1.8A14.221,14.221,0,0,1,.673.884L.654.891c.031.53.037,1.073.037,1.75V4.11Z" transform="translate(95.87 0.366)" fill="#fff"></path>
  </g>
</svg>
